<svg width="39" height="48" viewBox="0 0 39 48" fill="none" xmlns="http://www.w3.org/2000/svg">
<path fill-rule="evenodd" clip-rule="evenodd" d="M9.83815 2.60959C15.9246 -0.926884 23.4058 -0.865072 29.4351 2.77151C35.4051 6.48216 39.0336 13.1046 38.9998 20.2284C38.8608 27.3056 34.9701 33.9581 30.1067 39.1008C27.2997 42.0824 24.1596 44.7189 20.7505 46.9564C20.3994 47.1594 20.0148 47.2953 19.6157 47.3574C19.2316 47.3411 18.8575 47.2276 18.5272 47.0272C13.3226 43.6651 8.75649 39.3736 5.04867 34.3591C1.94608 30.1733 0.1834 25.1162 3.23627e-06 19.8746C-0.00402448 12.737 3.75173 6.14607 9.83815 2.60959ZM13.3552 22.8285C14.3791 25.3525 16.7957 26.9989 19.4767 26.9989C21.2331 27.0115 22.9215 26.308 24.1657 25.045C25.4099 23.7821 26.1064 22.0648 26.1002 20.2756C26.1096 17.5446 24.5018 15.0772 22.0275 14.0255C19.5532 12.9738 16.7006 13.5452 14.8015 15.4729C12.9024 17.4006 12.3314 20.3044 13.3552 22.8285Z" fill="#F90404"/>
</svg>
